<mxfile host="65bd71144e" modified="2021-02-21T08:21:58.011Z" agent="5.0 (Macintosh; Intel Mac OS X 10_16_0) AppleWebKit/537.36 (KHTML, like Gecko) Code/1.49.0 Chrome/83.0.4103.122 Electron/9.2.1 Safari/537.36" etag="WLPAPgFtF5VB5FYLWcbG" version="13.10.0" type="embed">
    <diagram id="dMFR4_u-g_itLVKAcwvc" name="第 1 页">
        <mxGraphModel dx="796" dy="759" grid="1" gridSize="10" guides="1" tooltips="1" connect="1" arrows="1" fold="1" page="1" pageScale="1" pageWidth="1200" pageHeight="1600" background="none" math="0" shadow="0">
            <root>
                <mxCell id="0"/>
                <mxCell id="1" parent="0"/>
                <mxCell id="wy1dixDUyAU1tPcHpdX4-132" value="" style="rounded=1;whiteSpace=wrap;html=1;fillColor=#fff2cc;strokeColor=#d6b656;" parent="1" vertex="1">
                    <mxGeometry x="780" y="1960" width="110" height="240" as="geometry"/>
                </mxCell>
                <mxCell id="wy1dixDUyAU1tPcHpdX4-10" style="edgeStyle=orthogonalEdgeStyle;rounded=0;orthogonalLoop=1;jettySize=auto;html=1;exitX=1;exitY=0.5;exitDx=0;exitDy=0;entryX=0;entryY=0.5;entryDx=0;entryDy=0;" parent="1" source="wy1dixDUyAU1tPcHpdX4-2" target="wy1dixDUyAU1tPcHpdX4-3" edge="1">
                    <mxGeometry relative="1" as="geometry"/>
                </mxCell>
                <mxCell id="wy1dixDUyAU1tPcHpdX4-2" value="&lt;font style=&quot;font-size: 19px&quot;&gt;&lt;b&gt;1&lt;/b&gt;&lt;/font&gt;" style="rounded=1;whiteSpace=wrap;html=1;fillColor=#d5e8d4;strokeColor=#82b366;" parent="1" vertex="1">
                    <mxGeometry x="120" y="200" width="50" height="50" as="geometry"/>
                </mxCell>
                <mxCell id="wy1dixDUyAU1tPcHpdX4-11" style="edgeStyle=orthogonalEdgeStyle;rounded=0;orthogonalLoop=1;jettySize=auto;html=1;entryX=0;entryY=0.5;entryDx=0;entryDy=0;" parent="1" source="wy1dixDUyAU1tPcHpdX4-3" target="wy1dixDUyAU1tPcHpdX4-4" edge="1">
                    <mxGeometry relative="1" as="geometry"/>
                </mxCell>
                <mxCell id="wy1dixDUyAU1tPcHpdX4-3" value="&lt;font style=&quot;font-size: 19px&quot;&gt;&lt;b&gt;2&lt;/b&gt;&lt;/font&gt;" style="rounded=1;whiteSpace=wrap;html=1;fillColor=#d5e8d4;strokeColor=#82b366;" parent="1" vertex="1">
                    <mxGeometry x="220" y="200" width="50" height="50" as="geometry"/>
                </mxCell>
                <mxCell id="wy1dixDUyAU1tPcHpdX4-12" style="edgeStyle=orthogonalEdgeStyle;rounded=0;orthogonalLoop=1;jettySize=auto;html=1;exitX=1;exitY=0.5;exitDx=0;exitDy=0;entryX=0;entryY=0.5;entryDx=0;entryDy=0;" parent="1" source="wy1dixDUyAU1tPcHpdX4-4" target="wy1dixDUyAU1tPcHpdX4-5" edge="1">
                    <mxGeometry relative="1" as="geometry"/>
                </mxCell>
                <mxCell id="wy1dixDUyAU1tPcHpdX4-4" value="&lt;font style=&quot;font-size: 19px&quot;&gt;&lt;b&gt;3&lt;/b&gt;&lt;/font&gt;" style="rounded=1;whiteSpace=wrap;html=1;fillColor=#d5e8d4;strokeColor=#82b366;" parent="1" vertex="1">
                    <mxGeometry x="320" y="200" width="50" height="50" as="geometry"/>
                </mxCell>
                <mxCell id="wy1dixDUyAU1tPcHpdX4-13" style="edgeStyle=orthogonalEdgeStyle;rounded=0;orthogonalLoop=1;jettySize=auto;html=1;exitX=1;exitY=0.5;exitDx=0;exitDy=0;entryX=0;entryY=0.5;entryDx=0;entryDy=0;" parent="1" source="wy1dixDUyAU1tPcHpdX4-5" target="wy1dixDUyAU1tPcHpdX4-6" edge="1">
                    <mxGeometry relative="1" as="geometry"/>
                </mxCell>
                <mxCell id="wy1dixDUyAU1tPcHpdX4-5" value="&lt;font style=&quot;font-size: 19px&quot;&gt;&lt;b&gt;6&lt;/b&gt;&lt;/font&gt;" style="rounded=1;whiteSpace=wrap;html=1;fillColor=#d5e8d4;strokeColor=#82b366;" parent="1" vertex="1">
                    <mxGeometry x="450" y="270" width="50" height="50" as="geometry"/>
                </mxCell>
                <mxCell id="wy1dixDUyAU1tPcHpdX4-6" value="&lt;font style=&quot;font-size: 19px&quot;&gt;&lt;b&gt;7&lt;/b&gt;&lt;/font&gt;" style="rounded=1;whiteSpace=wrap;html=1;fillColor=#d5e8d4;strokeColor=#82b366;" parent="1" vertex="1">
                    <mxGeometry x="610" y="270" width="50" height="50" as="geometry"/>
                </mxCell>
                <mxCell id="wy1dixDUyAU1tPcHpdX4-14" style="edgeStyle=orthogonalEdgeStyle;rounded=0;orthogonalLoop=1;jettySize=auto;html=1;exitX=1;exitY=0.5;exitDx=0;exitDy=0;entryX=0;entryY=0.5;entryDx=0;entryDy=0;" parent="1" source="wy1dixDUyAU1tPcHpdX4-8" target="wy1dixDUyAU1tPcHpdX4-9" edge="1">
                    <mxGeometry relative="1" as="geometry"/>
                </mxCell>
                <mxCell id="wy1dixDUyAU1tPcHpdX4-8" value="&lt;font style=&quot;font-size: 19px&quot;&gt;&lt;b&gt;4&lt;/b&gt;&lt;/font&gt;" style="rounded=1;whiteSpace=wrap;html=1;fillColor=#d5e8d4;strokeColor=#82b366;" parent="1" vertex="1">
                    <mxGeometry x="220" y="340" width="50" height="50" as="geometry"/>
                </mxCell>
                <mxCell id="wy1dixDUyAU1tPcHpdX4-15" style="edgeStyle=orthogonalEdgeStyle;rounded=0;orthogonalLoop=1;jettySize=auto;html=1;exitX=1;exitY=0.5;exitDx=0;exitDy=0;entryX=0;entryY=0.5;entryDx=0;entryDy=0;" parent="1" source="wy1dixDUyAU1tPcHpdX4-9" target="wy1dixDUyAU1tPcHpdX4-5" edge="1">
                    <mxGeometry relative="1" as="geometry"/>
                </mxCell>
                <mxCell id="wy1dixDUyAU1tPcHpdX4-9" value="&lt;font style=&quot;font-size: 19px&quot;&gt;&lt;b&gt;5&lt;/b&gt;&lt;/font&gt;" style="rounded=1;whiteSpace=wrap;html=1;fillColor=#d5e8d4;strokeColor=#82b366;" parent="1" vertex="1">
                    <mxGeometry x="320" y="340" width="50" height="50" as="geometry"/>
                </mxCell>
                <mxCell id="wy1dixDUyAU1tPcHpdX4-16" style="edgeStyle=orthogonalEdgeStyle;rounded=0;orthogonalLoop=1;jettySize=auto;html=1;exitX=1;exitY=0.5;exitDx=0;exitDy=0;entryX=0;entryY=0.5;entryDx=0;entryDy=0;" parent="1" source="wy1dixDUyAU1tPcHpdX4-17" target="wy1dixDUyAU1tPcHpdX4-19" edge="1">
                    <mxGeometry relative="1" as="geometry"/>
                </mxCell>
                <mxCell id="wy1dixDUyAU1tPcHpdX4-17" value="&lt;font style=&quot;font-size: 19px&quot;&gt;&lt;b&gt;1&lt;/b&gt;&lt;/font&gt;" style="rounded=1;whiteSpace=wrap;html=1;fillColor=#f8cecc;strokeColor=#b85450;" parent="1" vertex="1">
                    <mxGeometry x="120" y="510" width="50" height="50" as="geometry"/>
                </mxCell>
                <mxCell id="wy1dixDUyAU1tPcHpdX4-18" style="edgeStyle=orthogonalEdgeStyle;rounded=0;orthogonalLoop=1;jettySize=auto;html=1;entryX=0;entryY=0.5;entryDx=0;entryDy=0;" parent="1" source="wy1dixDUyAU1tPcHpdX4-19" target="wy1dixDUyAU1tPcHpdX4-21" edge="1">
                    <mxGeometry relative="1" as="geometry"/>
                </mxCell>
                <mxCell id="wy1dixDUyAU1tPcHpdX4-19" value="&lt;font style=&quot;font-size: 19px&quot;&gt;&lt;b&gt;2&lt;/b&gt;&lt;/font&gt;" style="rounded=1;whiteSpace=wrap;html=1;fillColor=#d5e8d4;strokeColor=#82b366;" parent="1" vertex="1">
                    <mxGeometry x="220" y="510" width="50" height="50" as="geometry"/>
                </mxCell>
                <mxCell id="wy1dixDUyAU1tPcHpdX4-20" style="edgeStyle=orthogonalEdgeStyle;rounded=0;orthogonalLoop=1;jettySize=auto;html=1;exitX=1;exitY=0.5;exitDx=0;exitDy=0;entryX=0;entryY=0.5;entryDx=0;entryDy=0;" parent="1" source="wy1dixDUyAU1tPcHpdX4-21" target="wy1dixDUyAU1tPcHpdX4-23" edge="1">
                    <mxGeometry relative="1" as="geometry"/>
                </mxCell>
                <mxCell id="wy1dixDUyAU1tPcHpdX4-21" value="&lt;font style=&quot;font-size: 19px&quot;&gt;&lt;b&gt;3&lt;/b&gt;&lt;/font&gt;" style="rounded=1;whiteSpace=wrap;html=1;fillColor=#d5e8d4;strokeColor=#82b366;" parent="1" vertex="1">
                    <mxGeometry x="320" y="510" width="50" height="50" as="geometry"/>
                </mxCell>
                <mxCell id="wy1dixDUyAU1tPcHpdX4-22" style="edgeStyle=orthogonalEdgeStyle;rounded=0;orthogonalLoop=1;jettySize=auto;html=1;exitX=1;exitY=0.5;exitDx=0;exitDy=0;entryX=0;entryY=0.5;entryDx=0;entryDy=0;" parent="1" source="wy1dixDUyAU1tPcHpdX4-23" target="wy1dixDUyAU1tPcHpdX4-24" edge="1">
                    <mxGeometry relative="1" as="geometry"/>
                </mxCell>
                <mxCell id="wy1dixDUyAU1tPcHpdX4-23" value="&lt;font style=&quot;font-size: 19px&quot;&gt;&lt;b&gt;6&lt;/b&gt;&lt;/font&gt;" style="rounded=1;whiteSpace=wrap;html=1;fillColor=#d5e8d4;strokeColor=#82b366;" parent="1" vertex="1">
                    <mxGeometry x="450" y="580" width="50" height="50" as="geometry"/>
                </mxCell>
                <mxCell id="wy1dixDUyAU1tPcHpdX4-24" value="&lt;font style=&quot;font-size: 19px&quot;&gt;&lt;b&gt;7&lt;/b&gt;&lt;/font&gt;" style="rounded=1;whiteSpace=wrap;html=1;fillColor=#d5e8d4;strokeColor=#82b366;" parent="1" vertex="1">
                    <mxGeometry x="610" y="580" width="50" height="50" as="geometry"/>
                </mxCell>
                <mxCell id="wy1dixDUyAU1tPcHpdX4-25" style="edgeStyle=orthogonalEdgeStyle;rounded=0;orthogonalLoop=1;jettySize=auto;html=1;exitX=1;exitY=0.5;exitDx=0;exitDy=0;entryX=0;entryY=0.5;entryDx=0;entryDy=0;" parent="1" source="wy1dixDUyAU1tPcHpdX4-26" target="wy1dixDUyAU1tPcHpdX4-28" edge="1">
                    <mxGeometry relative="1" as="geometry"/>
                </mxCell>
                <mxCell id="wy1dixDUyAU1tPcHpdX4-26" value="&lt;font style=&quot;font-size: 19px&quot;&gt;&lt;b&gt;4&lt;/b&gt;&lt;/font&gt;" style="rounded=1;whiteSpace=wrap;html=1;fillColor=#f8cecc;strokeColor=#b85450;" parent="1" vertex="1">
                    <mxGeometry x="220" y="650" width="50" height="50" as="geometry"/>
                </mxCell>
                <mxCell id="wy1dixDUyAU1tPcHpdX4-27" style="edgeStyle=orthogonalEdgeStyle;rounded=0;orthogonalLoop=1;jettySize=auto;html=1;exitX=1;exitY=0.5;exitDx=0;exitDy=0;entryX=0;entryY=0.5;entryDx=0;entryDy=0;" parent="1" source="wy1dixDUyAU1tPcHpdX4-28" target="wy1dixDUyAU1tPcHpdX4-23" edge="1">
                    <mxGeometry relative="1" as="geometry"/>
                </mxCell>
                <mxCell id="wy1dixDUyAU1tPcHpdX4-28" value="&lt;font style=&quot;font-size: 19px&quot;&gt;&lt;b&gt;5&lt;/b&gt;&lt;/font&gt;" style="rounded=1;whiteSpace=wrap;html=1;fillColor=#d5e8d4;strokeColor=#82b366;" parent="1" vertex="1">
                    <mxGeometry x="320" y="650" width="50" height="50" as="geometry"/>
                </mxCell>
                <mxCell id="wy1dixDUyAU1tPcHpdX4-30" value="" style="shape=flexArrow;endArrow=classic;html=1;" parent="1" edge="1">
                    <mxGeometry width="50" height="50" relative="1" as="geometry">
                        <mxPoint x="144.5" y="450" as="sourcePoint"/>
                        <mxPoint x="144.5" y="510" as="targetPoint"/>
                    </mxGeometry>
                </mxCell>
                <mxCell id="wy1dixDUyAU1tPcHpdX4-31" value="" style="shape=flexArrow;endArrow=classic;html=1;" parent="1" edge="1">
                    <mxGeometry width="50" height="50" relative="1" as="geometry">
                        <mxPoint x="244.5" y="590" as="sourcePoint"/>
                        <mxPoint x="244.5" y="650" as="targetPoint"/>
                    </mxGeometry>
                </mxCell>
                <mxCell id="wy1dixDUyAU1tPcHpdX4-32" style="edgeStyle=orthogonalEdgeStyle;rounded=0;orthogonalLoop=1;jettySize=auto;html=1;exitX=1;exitY=0.5;exitDx=0;exitDy=0;entryX=0;entryY=0.5;entryDx=0;entryDy=0;" parent="1" source="wy1dixDUyAU1tPcHpdX4-33" target="wy1dixDUyAU1tPcHpdX4-35" edge="1">
                    <mxGeometry relative="1" as="geometry"/>
                </mxCell>
                <mxCell id="wy1dixDUyAU1tPcHpdX4-33" value="&lt;font style=&quot;font-size: 19px&quot;&gt;&lt;b&gt;1&lt;/b&gt;&lt;/font&gt;" style="rounded=1;whiteSpace=wrap;html=1;fillColor=#d5e8d4;strokeColor=#82b366;" parent="1" vertex="1">
                    <mxGeometry x="110" y="830" width="50" height="50" as="geometry"/>
                </mxCell>
                <mxCell id="wy1dixDUyAU1tPcHpdX4-34" style="edgeStyle=orthogonalEdgeStyle;rounded=0;orthogonalLoop=1;jettySize=auto;html=1;entryX=0;entryY=0.5;entryDx=0;entryDy=0;" parent="1" source="wy1dixDUyAU1tPcHpdX4-35" target="wy1dixDUyAU1tPcHpdX4-37" edge="1">
                    <mxGeometry relative="1" as="geometry"/>
                </mxCell>
                <mxCell id="wy1dixDUyAU1tPcHpdX4-35" value="&lt;font style=&quot;font-size: 19px&quot;&gt;&lt;b&gt;2&lt;/b&gt;&lt;/font&gt;" style="rounded=1;whiteSpace=wrap;html=1;fillColor=#f8cecc;strokeColor=#b85450;" parent="1" vertex="1">
                    <mxGeometry x="210" y="830" width="50" height="50" as="geometry"/>
                </mxCell>
                <mxCell id="wy1dixDUyAU1tPcHpdX4-36" style="edgeStyle=orthogonalEdgeStyle;rounded=0;orthogonalLoop=1;jettySize=auto;html=1;exitX=1;exitY=0.5;exitDx=0;exitDy=0;entryX=0;entryY=0.5;entryDx=0;entryDy=0;" parent="1" source="wy1dixDUyAU1tPcHpdX4-37" target="wy1dixDUyAU1tPcHpdX4-39" edge="1">
                    <mxGeometry relative="1" as="geometry"/>
                </mxCell>
                <mxCell id="wy1dixDUyAU1tPcHpdX4-37" value="&lt;font style=&quot;font-size: 19px&quot;&gt;&lt;b&gt;3&lt;/b&gt;&lt;/font&gt;" style="rounded=1;whiteSpace=wrap;html=1;fillColor=#d5e8d4;strokeColor=#82b366;" parent="1" vertex="1">
                    <mxGeometry x="310" y="830" width="50" height="50" as="geometry"/>
                </mxCell>
                <mxCell id="wy1dixDUyAU1tPcHpdX4-38" style="edgeStyle=orthogonalEdgeStyle;rounded=0;orthogonalLoop=1;jettySize=auto;html=1;exitX=1;exitY=0.5;exitDx=0;exitDy=0;entryX=0;entryY=0.5;entryDx=0;entryDy=0;" parent="1" source="wy1dixDUyAU1tPcHpdX4-39" target="wy1dixDUyAU1tPcHpdX4-40" edge="1">
                    <mxGeometry relative="1" as="geometry"/>
                </mxCell>
                <mxCell id="wy1dixDUyAU1tPcHpdX4-39" value="&lt;font style=&quot;font-size: 19px&quot;&gt;&lt;b&gt;6&lt;/b&gt;&lt;/font&gt;" style="rounded=1;whiteSpace=wrap;html=1;fillColor=#d5e8d4;strokeColor=#82b366;" parent="1" vertex="1">
                    <mxGeometry x="440" y="900" width="50" height="50" as="geometry"/>
                </mxCell>
                <mxCell id="wy1dixDUyAU1tPcHpdX4-40" value="&lt;font style=&quot;font-size: 19px&quot;&gt;&lt;b&gt;7&lt;/b&gt;&lt;/font&gt;" style="rounded=1;whiteSpace=wrap;html=1;fillColor=#d5e8d4;strokeColor=#82b366;" parent="1" vertex="1">
                    <mxGeometry x="600" y="900" width="50" height="50" as="geometry"/>
                </mxCell>
                <mxCell id="wy1dixDUyAU1tPcHpdX4-41" style="edgeStyle=orthogonalEdgeStyle;rounded=0;orthogonalLoop=1;jettySize=auto;html=1;exitX=1;exitY=0.5;exitDx=0;exitDy=0;entryX=0;entryY=0.5;entryDx=0;entryDy=0;" parent="1" source="wy1dixDUyAU1tPcHpdX4-42" target="wy1dixDUyAU1tPcHpdX4-44" edge="1">
                    <mxGeometry relative="1" as="geometry"/>
                </mxCell>
                <mxCell id="wy1dixDUyAU1tPcHpdX4-42" value="&lt;font style=&quot;font-size: 19px&quot;&gt;&lt;b&gt;4&lt;/b&gt;&lt;/font&gt;" style="rounded=1;whiteSpace=wrap;html=1;fillColor=#f8cecc;strokeColor=#b85450;" parent="1" vertex="1">
                    <mxGeometry x="210" y="970" width="50" height="50" as="geometry"/>
                </mxCell>
                <mxCell id="wy1dixDUyAU1tPcHpdX4-43" style="edgeStyle=orthogonalEdgeStyle;rounded=0;orthogonalLoop=1;jettySize=auto;html=1;exitX=1;exitY=0.5;exitDx=0;exitDy=0;entryX=0;entryY=0.5;entryDx=0;entryDy=0;" parent="1" source="wy1dixDUyAU1tPcHpdX4-44" target="wy1dixDUyAU1tPcHpdX4-39" edge="1">
                    <mxGeometry relative="1" as="geometry"/>
                </mxCell>
                <mxCell id="wy1dixDUyAU1tPcHpdX4-44" value="&lt;font style=&quot;font-size: 19px&quot;&gt;&lt;b&gt;5&lt;/b&gt;&lt;/font&gt;" style="rounded=1;whiteSpace=wrap;html=1;fillColor=#d5e8d4;strokeColor=#82b366;" parent="1" vertex="1">
                    <mxGeometry x="310" y="970" width="50" height="50" as="geometry"/>
                </mxCell>
                <mxCell id="wy1dixDUyAU1tPcHpdX4-45" value="" style="shape=flexArrow;endArrow=classic;html=1;" parent="1" edge="1">
                    <mxGeometry width="50" height="50" relative="1" as="geometry">
                        <mxPoint x="234.5" y="770" as="sourcePoint"/>
                        <mxPoint x="234.5" y="830" as="targetPoint"/>
                    </mxGeometry>
                </mxCell>
                <mxCell id="wy1dixDUyAU1tPcHpdX4-46" value="" style="shape=flexArrow;endArrow=classic;html=1;" parent="1" edge="1">
                    <mxGeometry width="50" height="50" relative="1" as="geometry">
                        <mxPoint x="234.5" y="910" as="sourcePoint"/>
                        <mxPoint x="234.5" y="970" as="targetPoint"/>
                    </mxGeometry>
                </mxCell>
                <mxCell id="wy1dixDUyAU1tPcHpdX4-47" style="edgeStyle=orthogonalEdgeStyle;rounded=0;orthogonalLoop=1;jettySize=auto;html=1;exitX=1;exitY=0.5;exitDx=0;exitDy=0;entryX=0;entryY=0.5;entryDx=0;entryDy=0;" parent="1" source="wy1dixDUyAU1tPcHpdX4-48" target="wy1dixDUyAU1tPcHpdX4-50" edge="1">
                    <mxGeometry relative="1" as="geometry"/>
                </mxCell>
                <mxCell id="wy1dixDUyAU1tPcHpdX4-48" value="&lt;font style=&quot;font-size: 19px&quot;&gt;&lt;b&gt;1&lt;/b&gt;&lt;/font&gt;" style="rounded=1;whiteSpace=wrap;html=1;fillColor=#d5e8d4;strokeColor=#82b366;" parent="1" vertex="1">
                    <mxGeometry x="110" y="1170" width="50" height="50" as="geometry"/>
                </mxCell>
                <mxCell id="wy1dixDUyAU1tPcHpdX4-49" style="edgeStyle=orthogonalEdgeStyle;rounded=0;orthogonalLoop=1;jettySize=auto;html=1;entryX=0;entryY=0.5;entryDx=0;entryDy=0;" parent="1" source="wy1dixDUyAU1tPcHpdX4-50" target="wy1dixDUyAU1tPcHpdX4-52" edge="1">
                    <mxGeometry relative="1" as="geometry"/>
                </mxCell>
                <mxCell id="wy1dixDUyAU1tPcHpdX4-50" value="&lt;font style=&quot;font-size: 19px&quot;&gt;&lt;b&gt;2&lt;/b&gt;&lt;/font&gt;" style="rounded=1;whiteSpace=wrap;html=1;fillColor=#d5e8d4;strokeColor=#82b366;" parent="1" vertex="1">
                    <mxGeometry x="210" y="1170" width="50" height="50" as="geometry"/>
                </mxCell>
                <mxCell id="wy1dixDUyAU1tPcHpdX4-51" style="edgeStyle=orthogonalEdgeStyle;rounded=0;orthogonalLoop=1;jettySize=auto;html=1;exitX=1;exitY=0.5;exitDx=0;exitDy=0;entryX=0;entryY=0.5;entryDx=0;entryDy=0;" parent="1" source="wy1dixDUyAU1tPcHpdX4-52" target="wy1dixDUyAU1tPcHpdX4-54" edge="1">
                    <mxGeometry relative="1" as="geometry"/>
                </mxCell>
                <mxCell id="wy1dixDUyAU1tPcHpdX4-52" value="&lt;font style=&quot;font-size: 19px&quot;&gt;&lt;b&gt;3&lt;/b&gt;&lt;/font&gt;" style="rounded=1;whiteSpace=wrap;html=1;fillColor=#f8cecc;strokeColor=#b85450;" parent="1" vertex="1">
                    <mxGeometry x="310" y="1170" width="50" height="50" as="geometry"/>
                </mxCell>
                <mxCell id="wy1dixDUyAU1tPcHpdX4-53" style="edgeStyle=orthogonalEdgeStyle;rounded=0;orthogonalLoop=1;jettySize=auto;html=1;exitX=1;exitY=0.5;exitDx=0;exitDy=0;entryX=0;entryY=0.5;entryDx=0;entryDy=0;" parent="1" source="wy1dixDUyAU1tPcHpdX4-54" target="wy1dixDUyAU1tPcHpdX4-55" edge="1">
                    <mxGeometry relative="1" as="geometry"/>
                </mxCell>
                <mxCell id="wy1dixDUyAU1tPcHpdX4-54" value="&lt;font style=&quot;font-size: 19px&quot;&gt;&lt;b&gt;6&lt;/b&gt;&lt;/font&gt;" style="rounded=1;whiteSpace=wrap;html=1;fillColor=#d5e8d4;strokeColor=#82b366;" parent="1" vertex="1">
                    <mxGeometry x="440" y="1240" width="50" height="50" as="geometry"/>
                </mxCell>
                <mxCell id="wy1dixDUyAU1tPcHpdX4-55" value="&lt;font style=&quot;font-size: 19px&quot;&gt;&lt;b&gt;7&lt;/b&gt;&lt;/font&gt;" style="rounded=1;whiteSpace=wrap;html=1;fillColor=#d5e8d4;strokeColor=#82b366;" parent="1" vertex="1">
                    <mxGeometry x="600" y="1240" width="50" height="50" as="geometry"/>
                </mxCell>
                <mxCell id="wy1dixDUyAU1tPcHpdX4-56" style="edgeStyle=orthogonalEdgeStyle;rounded=0;orthogonalLoop=1;jettySize=auto;html=1;exitX=1;exitY=0.5;exitDx=0;exitDy=0;entryX=0;entryY=0.5;entryDx=0;entryDy=0;" parent="1" source="wy1dixDUyAU1tPcHpdX4-57" target="wy1dixDUyAU1tPcHpdX4-59" edge="1">
                    <mxGeometry relative="1" as="geometry"/>
                </mxCell>
                <mxCell id="wy1dixDUyAU1tPcHpdX4-57" value="&lt;font style=&quot;font-size: 19px&quot;&gt;&lt;b&gt;4&lt;/b&gt;&lt;/font&gt;" style="rounded=1;whiteSpace=wrap;html=1;fillColor=#d5e8d4;strokeColor=#82b366;" parent="1" vertex="1">
                    <mxGeometry x="210" y="1310" width="50" height="50" as="geometry"/>
                </mxCell>
                <mxCell id="wy1dixDUyAU1tPcHpdX4-58" style="edgeStyle=orthogonalEdgeStyle;rounded=0;orthogonalLoop=1;jettySize=auto;html=1;exitX=1;exitY=0.5;exitDx=0;exitDy=0;entryX=0;entryY=0.5;entryDx=0;entryDy=0;" parent="1" source="wy1dixDUyAU1tPcHpdX4-59" target="wy1dixDUyAU1tPcHpdX4-54" edge="1">
                    <mxGeometry relative="1" as="geometry"/>
                </mxCell>
                <mxCell id="wy1dixDUyAU1tPcHpdX4-59" value="&lt;font style=&quot;font-size: 19px&quot;&gt;&lt;b&gt;5&lt;/b&gt;&lt;/font&gt;" style="rounded=1;whiteSpace=wrap;html=1;fillColor=#f8cecc;strokeColor=#b85450;" parent="1" vertex="1">
                    <mxGeometry x="310" y="1310" width="50" height="50" as="geometry"/>
                </mxCell>
                <mxCell id="wy1dixDUyAU1tPcHpdX4-60" value="" style="shape=flexArrow;endArrow=classic;html=1;" parent="1" edge="1">
                    <mxGeometry width="50" height="50" relative="1" as="geometry">
                        <mxPoint x="334.5" y="1110" as="sourcePoint"/>
                        <mxPoint x="334.5" y="1170" as="targetPoint"/>
                    </mxGeometry>
                </mxCell>
                <mxCell id="wy1dixDUyAU1tPcHpdX4-61" value="" style="shape=flexArrow;endArrow=classic;html=1;" parent="1" edge="1">
                    <mxGeometry width="50" height="50" relative="1" as="geometry">
                        <mxPoint x="334.5" y="1250" as="sourcePoint"/>
                        <mxPoint x="334.5" y="1310" as="targetPoint"/>
                    </mxGeometry>
                </mxCell>
                <mxCell id="wy1dixDUyAU1tPcHpdX4-63" style="edgeStyle=orthogonalEdgeStyle;rounded=0;orthogonalLoop=1;jettySize=auto;html=1;exitX=1;exitY=0.5;exitDx=0;exitDy=0;entryX=0;entryY=0.5;entryDx=0;entryDy=0;" parent="1" source="wy1dixDUyAU1tPcHpdX4-64" target="wy1dixDUyAU1tPcHpdX4-66" edge="1">
                    <mxGeometry relative="1" as="geometry"/>
                </mxCell>
                <mxCell id="wy1dixDUyAU1tPcHpdX4-64" value="&lt;font style=&quot;font-size: 19px&quot;&gt;&lt;b&gt;1&lt;/b&gt;&lt;/font&gt;" style="rounded=1;whiteSpace=wrap;html=1;fillColor=#d5e8d4;strokeColor=#82b366;" parent="1" vertex="1">
                    <mxGeometry x="110" y="1460" width="50" height="50" as="geometry"/>
                </mxCell>
                <mxCell id="wy1dixDUyAU1tPcHpdX4-65" style="edgeStyle=orthogonalEdgeStyle;rounded=0;orthogonalLoop=1;jettySize=auto;html=1;entryX=0;entryY=0.5;entryDx=0;entryDy=0;" parent="1" source="wy1dixDUyAU1tPcHpdX4-66" target="wy1dixDUyAU1tPcHpdX4-68" edge="1">
                    <mxGeometry relative="1" as="geometry"/>
                </mxCell>
                <mxCell id="wy1dixDUyAU1tPcHpdX4-66" value="&lt;font style=&quot;font-size: 19px&quot;&gt;&lt;b&gt;2&lt;/b&gt;&lt;/font&gt;" style="rounded=1;whiteSpace=wrap;html=1;fillColor=#d5e8d4;strokeColor=#82b366;" parent="1" vertex="1">
                    <mxGeometry x="210" y="1460" width="50" height="50" as="geometry"/>
                </mxCell>
                <mxCell id="wy1dixDUyAU1tPcHpdX4-67" style="edgeStyle=orthogonalEdgeStyle;rounded=0;orthogonalLoop=1;jettySize=auto;html=1;exitX=1;exitY=0.5;exitDx=0;exitDy=0;entryX=0;entryY=0.5;entryDx=0;entryDy=0;" parent="1" source="wy1dixDUyAU1tPcHpdX4-68" target="wy1dixDUyAU1tPcHpdX4-70" edge="1">
                    <mxGeometry relative="1" as="geometry"/>
                </mxCell>
                <mxCell id="wy1dixDUyAU1tPcHpdX4-68" value="&lt;font style=&quot;font-size: 19px&quot;&gt;&lt;b&gt;3&lt;/b&gt;&lt;/font&gt;" style="rounded=1;whiteSpace=wrap;html=1;fillColor=#d5e8d4;strokeColor=#82b366;" parent="1" vertex="1">
                    <mxGeometry x="310" y="1460" width="50" height="50" as="geometry"/>
                </mxCell>
                <mxCell id="wy1dixDUyAU1tPcHpdX4-69" style="edgeStyle=orthogonalEdgeStyle;rounded=0;orthogonalLoop=1;jettySize=auto;html=1;exitX=1;exitY=0.5;exitDx=0;exitDy=0;entryX=0;entryY=0.5;entryDx=0;entryDy=0;" parent="1" source="wy1dixDUyAU1tPcHpdX4-70" target="wy1dixDUyAU1tPcHpdX4-71" edge="1">
                    <mxGeometry relative="1" as="geometry"/>
                </mxCell>
                <mxCell id="wy1dixDUyAU1tPcHpdX4-70" value="&lt;font style=&quot;font-size: 19px&quot;&gt;&lt;b&gt;6&lt;/b&gt;&lt;/font&gt;" style="rounded=1;whiteSpace=wrap;html=1;fillColor=#e1d5e7;strokeColor=#9673a6;" parent="1" vertex="1">
                    <mxGeometry x="440" y="1530" width="50" height="50" as="geometry"/>
                </mxCell>
                <mxCell id="wy1dixDUyAU1tPcHpdX4-71" value="&lt;font style=&quot;font-size: 19px&quot;&gt;&lt;b&gt;7&lt;/b&gt;&lt;/font&gt;" style="rounded=1;whiteSpace=wrap;html=1;fillColor=#d5e8d4;strokeColor=#82b366;" parent="1" vertex="1">
                    <mxGeometry x="600" y="1530" width="50" height="50" as="geometry"/>
                </mxCell>
                <mxCell id="wy1dixDUyAU1tPcHpdX4-72" style="edgeStyle=orthogonalEdgeStyle;rounded=0;orthogonalLoop=1;jettySize=auto;html=1;exitX=1;exitY=0.5;exitDx=0;exitDy=0;entryX=0;entryY=0.5;entryDx=0;entryDy=0;" parent="1" source="wy1dixDUyAU1tPcHpdX4-73" target="wy1dixDUyAU1tPcHpdX4-75" edge="1">
                    <mxGeometry relative="1" as="geometry"/>
                </mxCell>
                <mxCell id="wy1dixDUyAU1tPcHpdX4-73" value="&lt;font style=&quot;font-size: 19px&quot;&gt;&lt;b&gt;4&lt;/b&gt;&lt;/font&gt;" style="rounded=1;whiteSpace=wrap;html=1;fillColor=#d5e8d4;strokeColor=#82b366;" parent="1" vertex="1">
                    <mxGeometry x="210" y="1600" width="50" height="50" as="geometry"/>
                </mxCell>
                <mxCell id="wy1dixDUyAU1tPcHpdX4-74" style="edgeStyle=orthogonalEdgeStyle;rounded=0;orthogonalLoop=1;jettySize=auto;html=1;exitX=1;exitY=0.5;exitDx=0;exitDy=0;entryX=0;entryY=0.5;entryDx=0;entryDy=0;" parent="1" source="wy1dixDUyAU1tPcHpdX4-75" target="wy1dixDUyAU1tPcHpdX4-70" edge="1">
                    <mxGeometry relative="1" as="geometry"/>
                </mxCell>
                <mxCell id="wy1dixDUyAU1tPcHpdX4-75" value="&lt;font style=&quot;font-size: 19px&quot;&gt;&lt;b&gt;5&lt;/b&gt;&lt;/font&gt;" style="rounded=1;whiteSpace=wrap;html=1;fillColor=#d5e8d4;strokeColor=#82b366;" parent="1" vertex="1">
                    <mxGeometry x="310" y="1600" width="50" height="50" as="geometry"/>
                </mxCell>
                <mxCell id="wy1dixDUyAU1tPcHpdX4-76" value="" style="shape=flexArrow;endArrow=classic;html=1;" parent="1" edge="1">
                    <mxGeometry width="50" height="50" relative="1" as="geometry">
                        <mxPoint x="464.5" y="1470" as="sourcePoint"/>
                        <mxPoint x="464.5" y="1530" as="targetPoint"/>
                    </mxGeometry>
                </mxCell>
                <mxCell id="wy1dixDUyAU1tPcHpdX4-77" value="" style="shape=flexArrow;endArrow=classic;html=1;" parent="1" edge="1">
                    <mxGeometry width="50" height="50" relative="1" as="geometry">
                        <mxPoint x="465" y="1640" as="sourcePoint"/>
                        <mxPoint x="464.5" y="1580" as="targetPoint"/>
                    </mxGeometry>
                </mxCell>
                <mxCell id="wy1dixDUyAU1tPcHpdX4-78" value="3和5节点不相等" style="text;html=1;align=center;verticalAlign=middle;resizable=0;points=[];autosize=1;" parent="1" vertex="1">
                    <mxGeometry x="670" y="1250" width="100" height="20" as="geometry"/>
                </mxCell>
                <mxCell id="wy1dixDUyAU1tPcHpdX4-79" value="两个指针指向了同一个节点" style="text;html=1;align=center;verticalAlign=middle;resizable=0;points=[];autosize=1;" parent="1" vertex="1">
                    <mxGeometry x="670" y="1545" width="160" height="20" as="geometry"/>
                </mxCell>
                <mxCell id="wy1dixDUyAU1tPcHpdX4-80" style="edgeStyle=orthogonalEdgeStyle;rounded=0;orthogonalLoop=1;jettySize=auto;html=1;exitX=1;exitY=0.5;exitDx=0;exitDy=0;entryX=0;entryY=0.5;entryDx=0;entryDy=0;" parent="1" source="wy1dixDUyAU1tPcHpdX4-81" target="wy1dixDUyAU1tPcHpdX4-83" edge="1">
                    <mxGeometry relative="1" as="geometry"/>
                </mxCell>
                <mxCell id="wy1dixDUyAU1tPcHpdX4-81" value="&lt;font style=&quot;font-size: 19px&quot;&gt;&lt;b&gt;1&lt;/b&gt;&lt;/font&gt;" style="rounded=1;whiteSpace=wrap;html=1;fillColor=#d5e8d4;strokeColor=#82b366;" parent="1" vertex="1">
                    <mxGeometry x="110" y="1770" width="50" height="50" as="geometry"/>
                </mxCell>
                <mxCell id="wy1dixDUyAU1tPcHpdX4-82" style="edgeStyle=orthogonalEdgeStyle;rounded=0;orthogonalLoop=1;jettySize=auto;html=1;entryX=0;entryY=0.5;entryDx=0;entryDy=0;" parent="1" source="wy1dixDUyAU1tPcHpdX4-83" target="wy1dixDUyAU1tPcHpdX4-85" edge="1">
                    <mxGeometry relative="1" as="geometry"/>
                </mxCell>
                <mxCell id="wy1dixDUyAU1tPcHpdX4-83" value="&lt;font style=&quot;font-size: 19px&quot;&gt;&lt;b&gt;2&lt;/b&gt;&lt;/font&gt;" style="rounded=1;whiteSpace=wrap;html=1;fillColor=#d5e8d4;strokeColor=#82b366;" parent="1" vertex="1">
                    <mxGeometry x="210" y="1770" width="50" height="50" as="geometry"/>
                </mxCell>
                <mxCell id="wy1dixDUyAU1tPcHpdX4-84" style="edgeStyle=orthogonalEdgeStyle;rounded=0;orthogonalLoop=1;jettySize=auto;html=1;exitX=1;exitY=0.5;exitDx=0;exitDy=0;entryX=0;entryY=0.5;entryDx=0;entryDy=0;" parent="1" source="wy1dixDUyAU1tPcHpdX4-85" target="wy1dixDUyAU1tPcHpdX4-87" edge="1">
                    <mxGeometry relative="1" as="geometry"/>
                </mxCell>
                <mxCell id="wy1dixDUyAU1tPcHpdX4-85" value="&lt;font style=&quot;font-size: 19px&quot;&gt;&lt;b&gt;3&lt;/b&gt;&lt;/font&gt;" style="rounded=1;whiteSpace=wrap;html=1;fillColor=#d5e8d4;strokeColor=#82b366;" parent="1" vertex="1">
                    <mxGeometry x="310" y="1770" width="50" height="50" as="geometry"/>
                </mxCell>
                <mxCell id="wy1dixDUyAU1tPcHpdX4-86" style="edgeStyle=orthogonalEdgeStyle;rounded=0;orthogonalLoop=1;jettySize=auto;html=1;exitX=1;exitY=0.5;exitDx=0;exitDy=0;entryX=0;entryY=0.5;entryDx=0;entryDy=0;" parent="1" source="wy1dixDUyAU1tPcHpdX4-87" target="wy1dixDUyAU1tPcHpdX4-88" edge="1">
                    <mxGeometry relative="1" as="geometry"/>
                </mxCell>
                <mxCell id="wy1dixDUyAU1tPcHpdX4-87" value="&lt;font style=&quot;font-size: 19px&quot;&gt;&lt;b&gt;6&lt;/b&gt;&lt;/font&gt;" style="rounded=1;whiteSpace=wrap;html=1;fillColor=#e1d5e7;strokeColor=#9673a6;" parent="1" vertex="1">
                    <mxGeometry x="420" y="1770" width="50" height="50" as="geometry"/>
                </mxCell>
                <mxCell id="wy1dixDUyAU1tPcHpdX4-88" value="&lt;font style=&quot;font-size: 19px&quot;&gt;&lt;b&gt;7&lt;/b&gt;&lt;/font&gt;" style="rounded=1;whiteSpace=wrap;html=1;fillColor=#d5e8d4;strokeColor=#82b366;" parent="1" vertex="1">
                    <mxGeometry x="550" y="1770" width="50" height="50" as="geometry"/>
                </mxCell>
                <mxCell id="wy1dixDUyAU1tPcHpdX4-89" style="edgeStyle=orthogonalEdgeStyle;rounded=0;orthogonalLoop=1;jettySize=auto;html=1;exitX=1;exitY=0.5;exitDx=0;exitDy=0;entryX=0;entryY=0.5;entryDx=0;entryDy=0;fillColor=#f8cecc;strokeColor=#b85450;" parent="1" source="wy1dixDUyAU1tPcHpdX4-90" target="wy1dixDUyAU1tPcHpdX4-92" edge="1">
                    <mxGeometry relative="1" as="geometry"/>
                </mxCell>
                <mxCell id="wy1dixDUyAU1tPcHpdX4-90" value="&lt;font style=&quot;font-size: 19px&quot;&gt;&lt;b&gt;4&lt;/b&gt;&lt;/font&gt;" style="rounded=1;whiteSpace=wrap;html=1;fillColor=#f8cecc;strokeColor=#b85450;" parent="1" vertex="1">
                    <mxGeometry x="110" y="1870" width="50" height="50" as="geometry"/>
                </mxCell>
                <mxCell id="wy1dixDUyAU1tPcHpdX4-92" value="&lt;font style=&quot;font-size: 19px&quot;&gt;&lt;b&gt;5&lt;/b&gt;&lt;/font&gt;" style="rounded=1;whiteSpace=wrap;html=1;fillColor=#f8cecc;strokeColor=#b85450;" parent="1" vertex="1">
                    <mxGeometry x="210" y="1870" width="50" height="50" as="geometry"/>
                </mxCell>
                <mxCell id="wy1dixDUyAU1tPcHpdX4-93" style="edgeStyle=orthogonalEdgeStyle;rounded=0;orthogonalLoop=1;jettySize=auto;html=1;exitX=1;exitY=0.5;exitDx=0;exitDy=0;entryX=0;entryY=0.5;entryDx=0;entryDy=0;fillColor=#f8cecc;strokeColor=#b85450;" parent="1" target="wy1dixDUyAU1tPcHpdX4-95" edge="1">
                    <mxGeometry relative="1" as="geometry">
                        <mxPoint x="250" y="1895" as="sourcePoint"/>
                    </mxGeometry>
                </mxCell>
                <mxCell id="wy1dixDUyAU1tPcHpdX4-94" style="edgeStyle=orthogonalEdgeStyle;rounded=0;orthogonalLoop=1;jettySize=auto;html=1;exitX=1;exitY=0.5;exitDx=0;exitDy=0;entryX=0;entryY=0.5;entryDx=0;entryDy=0;fillColor=#f8cecc;strokeColor=#b85450;" parent="1" source="wy1dixDUyAU1tPcHpdX4-95" target="wy1dixDUyAU1tPcHpdX4-96" edge="1">
                    <mxGeometry relative="1" as="geometry"/>
                </mxCell>
                <mxCell id="wy1dixDUyAU1tPcHpdX4-95" value="&lt;font style=&quot;font-size: 19px&quot;&gt;&lt;b&gt;6&lt;/b&gt;&lt;/font&gt;" style="rounded=1;whiteSpace=wrap;html=1;fillColor=#e1d5e7;strokeColor=#9673a6;" parent="1" vertex="1">
                    <mxGeometry x="310" y="1870" width="50" height="50" as="geometry"/>
                </mxCell>
                <mxCell id="wy1dixDUyAU1tPcHpdX4-96" value="&lt;font style=&quot;font-size: 19px&quot;&gt;&lt;b&gt;7&lt;/b&gt;&lt;/font&gt;" style="rounded=1;whiteSpace=wrap;html=1;fillColor=#f8cecc;strokeColor=#b85450;" parent="1" vertex="1">
                    <mxGeometry x="420" y="1870" width="50" height="50" as="geometry"/>
                </mxCell>
                <mxCell id="wy1dixDUyAU1tPcHpdX4-98" style="edgeStyle=orthogonalEdgeStyle;rounded=0;orthogonalLoop=1;jettySize=auto;html=1;exitX=1;exitY=0.5;exitDx=0;exitDy=0;entryX=0;entryY=0.5;entryDx=0;entryDy=0;" parent="1" source="wy1dixDUyAU1tPcHpdX4-99" target="wy1dixDUyAU1tPcHpdX4-101" edge="1">
                    <mxGeometry relative="1" as="geometry"/>
                </mxCell>
                <mxCell id="wy1dixDUyAU1tPcHpdX4-99" value="&lt;font style=&quot;font-size: 19px&quot;&gt;&lt;b&gt;1&lt;/b&gt;&lt;/font&gt;" style="rounded=1;whiteSpace=wrap;html=1;fillColor=#d5e8d4;strokeColor=#82b366;" parent="1" vertex="1">
                    <mxGeometry x="70" y="2000" width="50" height="50" as="geometry"/>
                </mxCell>
                <mxCell id="wy1dixDUyAU1tPcHpdX4-100" style="edgeStyle=orthogonalEdgeStyle;rounded=0;orthogonalLoop=1;jettySize=auto;html=1;entryX=0;entryY=0.5;entryDx=0;entryDy=0;" parent="1" source="wy1dixDUyAU1tPcHpdX4-101" target="wy1dixDUyAU1tPcHpdX4-103" edge="1">
                    <mxGeometry relative="1" as="geometry"/>
                </mxCell>
                <mxCell id="wy1dixDUyAU1tPcHpdX4-101" value="&lt;font style=&quot;font-size: 19px&quot;&gt;&lt;b&gt;2&lt;/b&gt;&lt;/font&gt;" style="rounded=1;whiteSpace=wrap;html=1;fillColor=#d5e8d4;strokeColor=#82b366;" parent="1" vertex="1">
                    <mxGeometry x="170" y="2000" width="50" height="50" as="geometry"/>
                </mxCell>
                <mxCell id="wy1dixDUyAU1tPcHpdX4-102" style="edgeStyle=orthogonalEdgeStyle;rounded=0;orthogonalLoop=1;jettySize=auto;html=1;exitX=1;exitY=0.5;exitDx=0;exitDy=0;entryX=0;entryY=0.5;entryDx=0;entryDy=0;" parent="1" source="wy1dixDUyAU1tPcHpdX4-103" target="wy1dixDUyAU1tPcHpdX4-105" edge="1">
                    <mxGeometry relative="1" as="geometry"/>
                </mxCell>
                <mxCell id="wy1dixDUyAU1tPcHpdX4-103" value="&lt;font style=&quot;font-size: 19px&quot;&gt;&lt;b&gt;3&lt;/b&gt;&lt;/font&gt;" style="rounded=1;whiteSpace=wrap;html=1;fillColor=#d5e8d4;strokeColor=#82b366;" parent="1" vertex="1">
                    <mxGeometry x="270" y="2000" width="50" height="50" as="geometry"/>
                </mxCell>
                <mxCell id="wy1dixDUyAU1tPcHpdX4-104" style="edgeStyle=orthogonalEdgeStyle;rounded=0;orthogonalLoop=1;jettySize=auto;html=1;exitX=1;exitY=0.5;exitDx=0;exitDy=0;entryX=0;entryY=0.5;entryDx=0;entryDy=0;" parent="1" source="wy1dixDUyAU1tPcHpdX4-105" target="wy1dixDUyAU1tPcHpdX4-106" edge="1">
                    <mxGeometry relative="1" as="geometry"/>
                </mxCell>
                <mxCell id="wy1dixDUyAU1tPcHpdX4-105" value="&lt;font style=&quot;font-size: 19px&quot;&gt;&lt;b&gt;6&lt;/b&gt;&lt;/font&gt;" style="rounded=1;whiteSpace=wrap;html=1;fillColor=#e1d5e7;strokeColor=#9673a6;" parent="1" vertex="1">
                    <mxGeometry x="380" y="2000" width="50" height="50" as="geometry"/>
                </mxCell>
                <mxCell id="wy1dixDUyAU1tPcHpdX4-114" style="edgeStyle=orthogonalEdgeStyle;rounded=0;orthogonalLoop=1;jettySize=auto;html=1;exitX=1;exitY=0.5;exitDx=0;exitDy=0;entryX=0;entryY=0.5;entryDx=0;entryDy=0;" parent="1" source="wy1dixDUyAU1tPcHpdX4-106" target="wy1dixDUyAU1tPcHpdX4-108" edge="1">
                    <mxGeometry relative="1" as="geometry"/>
                </mxCell>
                <mxCell id="wy1dixDUyAU1tPcHpdX4-106" value="&lt;font style=&quot;font-size: 19px&quot;&gt;&lt;b&gt;7&lt;/b&gt;&lt;/font&gt;" style="rounded=1;whiteSpace=wrap;html=1;fillColor=#d5e8d4;strokeColor=#82b366;" parent="1" vertex="1">
                    <mxGeometry x="500" y="2000" width="50" height="50" as="geometry"/>
                </mxCell>
                <mxCell id="wy1dixDUyAU1tPcHpdX4-107" style="edgeStyle=orthogonalEdgeStyle;rounded=0;orthogonalLoop=1;jettySize=auto;html=1;exitX=1;exitY=0.5;exitDx=0;exitDy=0;entryX=0;entryY=0.5;entryDx=0;entryDy=0;fillColor=#f8cecc;strokeColor=#b85450;" parent="1" source="wy1dixDUyAU1tPcHpdX4-108" target="wy1dixDUyAU1tPcHpdX4-109" edge="1">
                    <mxGeometry relative="1" as="geometry"/>
                </mxCell>
                <mxCell id="wy1dixDUyAU1tPcHpdX4-108" value="&lt;font style=&quot;font-size: 19px&quot;&gt;&lt;b&gt;4&lt;/b&gt;&lt;/font&gt;" style="rounded=1;whiteSpace=wrap;html=1;fillColor=#f8cecc;strokeColor=#b85450;" parent="1" vertex="1">
                    <mxGeometry x="610" y="2000" width="50" height="50" as="geometry"/>
                </mxCell>
                <mxCell id="wy1dixDUyAU1tPcHpdX4-109" value="&lt;font style=&quot;font-size: 19px&quot;&gt;&lt;b&gt;5&lt;/b&gt;&lt;/font&gt;" style="rounded=1;whiteSpace=wrap;html=1;fillColor=#f8cecc;strokeColor=#b85450;" parent="1" vertex="1">
                    <mxGeometry x="710" y="2000" width="50" height="50" as="geometry"/>
                </mxCell>
                <mxCell id="wy1dixDUyAU1tPcHpdX4-110" style="edgeStyle=orthogonalEdgeStyle;rounded=0;orthogonalLoop=1;jettySize=auto;html=1;exitX=1;exitY=0.5;exitDx=0;exitDy=0;entryX=0;entryY=0.5;entryDx=0;entryDy=0;fillColor=#f8cecc;strokeColor=#b85450;" parent="1" target="wy1dixDUyAU1tPcHpdX4-112" edge="1">
                    <mxGeometry relative="1" as="geometry">
                        <mxPoint x="750" y="2025" as="sourcePoint"/>
                    </mxGeometry>
                </mxCell>
                <mxCell id="wy1dixDUyAU1tPcHpdX4-111" style="edgeStyle=orthogonalEdgeStyle;rounded=0;orthogonalLoop=1;jettySize=auto;html=1;exitX=1;exitY=0.5;exitDx=0;exitDy=0;entryX=0;entryY=0.5;entryDx=0;entryDy=0;fillColor=#f8cecc;strokeColor=#b85450;" parent="1" source="wy1dixDUyAU1tPcHpdX4-112" target="wy1dixDUyAU1tPcHpdX4-113" edge="1">
                    <mxGeometry relative="1" as="geometry"/>
                </mxCell>
                <mxCell id="wy1dixDUyAU1tPcHpdX4-112" value="&lt;font style=&quot;font-size: 19px&quot;&gt;&lt;b&gt;6&lt;/b&gt;&lt;/font&gt;" style="rounded=1;whiteSpace=wrap;html=1;fillColor=#e1d5e7;strokeColor=#9673a6;" parent="1" vertex="1">
                    <mxGeometry x="810" y="2000" width="50" height="50" as="geometry"/>
                </mxCell>
                <mxCell id="wy1dixDUyAU1tPcHpdX4-113" value="&lt;font style=&quot;font-size: 19px&quot;&gt;&lt;b&gt;7&lt;/b&gt;&lt;/font&gt;" style="rounded=1;whiteSpace=wrap;html=1;fillColor=#f8cecc;strokeColor=#b85450;" parent="1" vertex="1">
                    <mxGeometry x="920" y="2000" width="50" height="50" as="geometry"/>
                </mxCell>
                <mxCell id="wy1dixDUyAU1tPcHpdX4-115" style="edgeStyle=orthogonalEdgeStyle;rounded=0;orthogonalLoop=1;jettySize=auto;html=1;exitX=1;exitY=0.5;exitDx=0;exitDy=0;entryX=0;entryY=0.5;entryDx=0;entryDy=0;fillColor=#f8cecc;strokeColor=#b85450;" parent="1" source="wy1dixDUyAU1tPcHpdX4-116" target="wy1dixDUyAU1tPcHpdX4-117" edge="1">
                    <mxGeometry relative="1" as="geometry"/>
                </mxCell>
                <mxCell id="wy1dixDUyAU1tPcHpdX4-116" value="&lt;font style=&quot;font-size: 19px&quot;&gt;&lt;b&gt;4&lt;/b&gt;&lt;/font&gt;" style="rounded=1;whiteSpace=wrap;html=1;fillColor=#f8cecc;strokeColor=#b85450;" parent="1" vertex="1">
                    <mxGeometry x="70" y="2110" width="50" height="50" as="geometry"/>
                </mxCell>
                <mxCell id="wy1dixDUyAU1tPcHpdX4-117" value="&lt;font style=&quot;font-size: 19px&quot;&gt;&lt;b&gt;5&lt;/b&gt;&lt;/font&gt;" style="rounded=1;whiteSpace=wrap;html=1;fillColor=#f8cecc;strokeColor=#b85450;" parent="1" vertex="1">
                    <mxGeometry x="170" y="2110" width="50" height="50" as="geometry"/>
                </mxCell>
                <mxCell id="wy1dixDUyAU1tPcHpdX4-118" style="edgeStyle=orthogonalEdgeStyle;rounded=0;orthogonalLoop=1;jettySize=auto;html=1;exitX=1;exitY=0.5;exitDx=0;exitDy=0;entryX=0;entryY=0.5;entryDx=0;entryDy=0;fillColor=#f8cecc;strokeColor=#b85450;" parent="1" target="wy1dixDUyAU1tPcHpdX4-120" edge="1">
                    <mxGeometry relative="1" as="geometry">
                        <mxPoint x="210" y="2135" as="sourcePoint"/>
                    </mxGeometry>
                </mxCell>
                <mxCell id="wy1dixDUyAU1tPcHpdX4-119" style="edgeStyle=orthogonalEdgeStyle;rounded=0;orthogonalLoop=1;jettySize=auto;html=1;exitX=1;exitY=0.5;exitDx=0;exitDy=0;entryX=0;entryY=0.5;entryDx=0;entryDy=0;fillColor=#f8cecc;strokeColor=#b85450;" parent="1" source="wy1dixDUyAU1tPcHpdX4-120" target="wy1dixDUyAU1tPcHpdX4-121" edge="1">
                    <mxGeometry relative="1" as="geometry"/>
                </mxCell>
                <mxCell id="wy1dixDUyAU1tPcHpdX4-120" value="&lt;font style=&quot;font-size: 19px&quot;&gt;&lt;b&gt;6&lt;/b&gt;&lt;/font&gt;" style="rounded=1;whiteSpace=wrap;html=1;fillColor=#e1d5e7;strokeColor=#9673a6;" parent="1" vertex="1">
                    <mxGeometry x="270" y="2110" width="50" height="50" as="geometry"/>
                </mxCell>
                <mxCell id="wy1dixDUyAU1tPcHpdX4-131" style="edgeStyle=orthogonalEdgeStyle;rounded=0;orthogonalLoop=1;jettySize=auto;html=1;exitX=1;exitY=0.5;exitDx=0;exitDy=0;entryX=0;entryY=0.5;entryDx=0;entryDy=0;" parent="1" source="wy1dixDUyAU1tPcHpdX4-121" target="wy1dixDUyAU1tPcHpdX4-123" edge="1">
                    <mxGeometry relative="1" as="geometry"/>
                </mxCell>
                <mxCell id="wy1dixDUyAU1tPcHpdX4-121" value="&lt;font style=&quot;font-size: 19px&quot;&gt;&lt;b&gt;7&lt;/b&gt;&lt;/font&gt;" style="rounded=1;whiteSpace=wrap;html=1;fillColor=#f8cecc;strokeColor=#b85450;" parent="1" vertex="1">
                    <mxGeometry x="380" y="2110" width="50" height="50" as="geometry"/>
                </mxCell>
                <mxCell id="wy1dixDUyAU1tPcHpdX4-122" style="edgeStyle=orthogonalEdgeStyle;rounded=0;orthogonalLoop=1;jettySize=auto;html=1;exitX=1;exitY=0.5;exitDx=0;exitDy=0;entryX=0;entryY=0.5;entryDx=0;entryDy=0;" parent="1" source="wy1dixDUyAU1tPcHpdX4-123" target="wy1dixDUyAU1tPcHpdX4-125" edge="1">
                    <mxGeometry relative="1" as="geometry"/>
                </mxCell>
                <mxCell id="wy1dixDUyAU1tPcHpdX4-123" value="&lt;font style=&quot;font-size: 19px&quot;&gt;&lt;b&gt;1&lt;/b&gt;&lt;/font&gt;" style="rounded=1;whiteSpace=wrap;html=1;fillColor=#d5e8d4;strokeColor=#82b366;" parent="1" vertex="1">
                    <mxGeometry x="500" y="2110" width="50" height="50" as="geometry"/>
                </mxCell>
                <mxCell id="wy1dixDUyAU1tPcHpdX4-124" style="edgeStyle=orthogonalEdgeStyle;rounded=0;orthogonalLoop=1;jettySize=auto;html=1;entryX=0;entryY=0.5;entryDx=0;entryDy=0;" parent="1" source="wy1dixDUyAU1tPcHpdX4-125" target="wy1dixDUyAU1tPcHpdX4-127" edge="1">
                    <mxGeometry relative="1" as="geometry"/>
                </mxCell>
                <mxCell id="wy1dixDUyAU1tPcHpdX4-125" value="&lt;font style=&quot;font-size: 19px&quot;&gt;&lt;b&gt;2&lt;/b&gt;&lt;/font&gt;" style="rounded=1;whiteSpace=wrap;html=1;fillColor=#d5e8d4;strokeColor=#82b366;" parent="1" vertex="1">
                    <mxGeometry x="600" y="2110" width="50" height="50" as="geometry"/>
                </mxCell>
                <mxCell id="wy1dixDUyAU1tPcHpdX4-126" style="edgeStyle=orthogonalEdgeStyle;rounded=0;orthogonalLoop=1;jettySize=auto;html=1;exitX=1;exitY=0.5;exitDx=0;exitDy=0;entryX=0;entryY=0.5;entryDx=0;entryDy=0;" parent="1" source="wy1dixDUyAU1tPcHpdX4-127" target="wy1dixDUyAU1tPcHpdX4-129" edge="1">
                    <mxGeometry relative="1" as="geometry"/>
                </mxCell>
                <mxCell id="wy1dixDUyAU1tPcHpdX4-127" value="&lt;font style=&quot;font-size: 19px&quot;&gt;&lt;b&gt;3&lt;/b&gt;&lt;/font&gt;" style="rounded=1;whiteSpace=wrap;html=1;fillColor=#d5e8d4;strokeColor=#82b366;" parent="1" vertex="1">
                    <mxGeometry x="700" y="2110" width="50" height="50" as="geometry"/>
                </mxCell>
                <mxCell id="wy1dixDUyAU1tPcHpdX4-128" style="edgeStyle=orthogonalEdgeStyle;rounded=0;orthogonalLoop=1;jettySize=auto;html=1;exitX=1;exitY=0.5;exitDx=0;exitDy=0;entryX=0;entryY=0.5;entryDx=0;entryDy=0;" parent="1" source="wy1dixDUyAU1tPcHpdX4-129" target="wy1dixDUyAU1tPcHpdX4-130" edge="1">
                    <mxGeometry relative="1" as="geometry"/>
                </mxCell>
                <mxCell id="wy1dixDUyAU1tPcHpdX4-129" value="&lt;font style=&quot;font-size: 19px&quot;&gt;&lt;b&gt;6&lt;/b&gt;&lt;/font&gt;" style="rounded=1;whiteSpace=wrap;html=1;fillColor=#e1d5e7;strokeColor=#9673a6;" parent="1" vertex="1">
                    <mxGeometry x="810" y="2110" width="50" height="50" as="geometry"/>
                </mxCell>
                <mxCell id="wy1dixDUyAU1tPcHpdX4-130" value="&lt;font style=&quot;font-size: 19px&quot;&gt;&lt;b&gt;7&lt;/b&gt;&lt;/font&gt;" style="rounded=1;whiteSpace=wrap;html=1;fillColor=#d5e8d4;strokeColor=#82b366;" parent="1" vertex="1">
                    <mxGeometry x="920" y="2110" width="50" height="50" as="geometry"/>
                </mxCell>
                <mxCell id="wy1dixDUyAU1tPcHpdX4-133" value="" style="shape=flexArrow;endArrow=classic;html=1;" parent="1" edge="1">
                    <mxGeometry width="50" height="50" relative="1" as="geometry">
                        <mxPoint x="94.5" y="1940" as="sourcePoint"/>
                        <mxPoint x="94.5" y="2000" as="targetPoint"/>
                    </mxGeometry>
                </mxCell>
                <mxCell id="wy1dixDUyAU1tPcHpdX4-134" value="" style="shape=flexArrow;endArrow=classic;html=1;entryX=0.5;entryY=1;entryDx=0;entryDy=0;" parent="1" target="wy1dixDUyAU1tPcHpdX4-116" edge="1">
                    <mxGeometry width="50" height="50" relative="1" as="geometry">
                        <mxPoint x="95" y="2230" as="sourcePoint"/>
                        <mxPoint x="80" y="2290" as="targetPoint"/>
                    </mxGeometry>
                </mxCell>
            </root>
        </mxGraphModel>
    </diagram>
</mxfile>